HIERARCHY
ROOT Hips
{
    OFFSET 0.000000 0.000000 0.000000
    CHANNELS 6 Xposition Yposition Zposition Zrotation Xrotation Yrotation
    JOINT Spine
    {
        OFFSET -0.000000 8.250426 0.000000
        CHANNELS 3 Zrotation Xrotation Yrotation
        JOINT Spine1
        {
            OFFSET -0.000000 26.973461 0.000000
            CHANNELS 3 Zrotation Xrotation Yrotation
            JOINT Neck
            {
                OFFSET -0.000000 26.862686 2.442063
                CHANNELS 3 Zrotation Xrotation Yrotation
                JOINT Head
                {
                    OFFSET -0.000000 14.086093 -2.012299
                    CHANNELS 3 Zrotation Xrotation Yrotation
                    End Site
                    {
                        OFFSET -0.000000 25.153738 0.000000
                    }
                }
            }
            JOINT LeftShoulder
            {
                OFFSET 4.034606 23.897446 -0.313550
                CHANNELS 3 Zrotation Xrotation Yrotation
                JOINT LeftArm
                {
                    OFFSET 14.610420 0.000000 0.000000
                    CHANNELS 3 Zrotation Xrotation Yrotation
                    JOINT LeftForeArm
                    {
                        OFFSET 28.890345 0.000000 0.000000
                        CHANNELS 3 Zrotation Xrotation Yrotation
                        JOINT LeftHand
                        {
                            OFFSET 28.816763 0.000000 0.000000
                            CHANNELS 3 Zrotation Xrotation Yrotation
                            End Site
                            {
                                OFFSET 15.092243 0.000000 0.000000
                            }
                        }
                    }
                }
            }
            JOINT RightShoulder
            {
                OFFSET -4.014012 23.897446 -0.313550
                CHANNELS 3 Zrotation Xrotation Yrotation
                JOINT RightArm
                {
                    OFFSET -14.610420 0.000000 0.000000
                    CHANNELS 3 Zrotation Xrotation Yrotation
                    JOINT RightForeArm
                    {
                        OFFSET -28.890345 0.000000 0.000000
                        CHANNELS 3 Zrotation Xrotation Yrotation
                        JOINT RightHand
                        {
                            OFFSET -28.816763 0.000000 0.000000
                            CHANNELS 3 Zrotation Xrotation Yrotation
                            End Site
                            {
                                OFFSET -15.092243 0.000000 0.000000
                            }
                        }
                    }
                }
            }
        }
    }
    JOINT LeftUpLeg
    {
        OFFSET 10.061496 0.000000 0.000000
        CHANNELS 3 Zrotation Xrotation Yrotation
        JOINT LeftLeg
        {
            OFFSET -0.000000 -36.089622 0.000000
            CHANNELS 3 Zrotation Xrotation Yrotation
            JOINT LeftFoot
            {
                OFFSET -0.000000 -47.113575 0.000000
                CHANNELS 3 Zrotation Xrotation Yrotation
                JOINT LeftToeBase
                {
                    OFFSET -0.000000 -6.539971 15.092243
                    CHANNELS 3 Zrotation Xrotation Yrotation
                    End Site
                    {
                        OFFSET -0.000000 0.000000 4.024598
                    }
                }
            }
        }
    }
    JOINT RightUpLeg
    {
        OFFSET -10.061496 0.000000 0.000000
        CHANNELS 3 Zrotation Xrotation Yrotation
        JOINT RightLeg
        {
            OFFSET -0.000000 -36.089622 0.000000
            CHANNELS 3 Zrotation Xrotation Yrotation
            JOINT RightFoot
            {
                OFFSET -0.000000 -47.113575 0.000000
                CHANNELS 3 Zrotation Xrotation Yrotation
                JOINT RightToeBase
                {
                    OFFSET -0.000000 -6.539971 15.092243
                    CHANNELS 3 Zrotation Xrotation Yrotation
                    End Site
                    {
                        OFFSET -0.000000 0.000000 4.024598
                    }
                }
            }
        }
    }
}
MOTION
Frames:    13
Frame Time:    0.004000
-9.077920    82.475555    -211.101868    0.414223    -1.232127    2.256473    -0.739127    -3.797005    1.347833    -2.360391    -2.957925    1.311395    9.615050    24.492607    10.748356    -8.034198    6.137541    11.255969    17.701780    -2.421283    -1.984179    -24.816410    -4.178400    -1.526761    -0.621612    5.000287    1.625623    18.094778    5.274163    1.671382    -13.796419    -1.946887    0.683868    19.416687    7.097784    3.260151    -10.823391    -1.702490    0.722106    7.449591    -2.146751    -7.866300    3.912166    0.959004    -5.836451    -4.634642    12.274478    -22.646845    12.269918    -14.396735    38.009666    0.000000    0.000000    0.000000    -3.995522    2.623224    2.851489    5.440959    8.888124    -0.293959    -6.448306    -18.925322    -7.529623    0.000000    0.000000    0.000000    
-9.079257    82.476219    -211.106033    0.413248    -1.231631    2.254543    -0.755178    -3.788898    1.343783    -2.339872    -2.975103    1.308018    9.617406    24.501604    10.746471    -8.049246    6.148864    11.254526    17.689789    -2.397868    -1.980703    -24.811174    -4.153971    -1.563796    -0.619799    5.006333    1.631293    18.082006    5.279197    1.666125    -13.798583    -1.943504    0.679778    19.424385    7.118675    3.273360    -10.856502    -1.708616    0.722370    7.505932    -2.155126    -7.845120    3.911386    0.957705    -5.820297    -4.622391    12.272408    -22.660484    12.284061    -14.376614    37.998421    0.000000    0.000000    0.000000    -3.992214    2.619047    2.845033    5.436897    8.887296    -0.315326    -6.424225    -18.921312    -7.495467    0.000000    0.000000    0.000000    
-9.081409    82.475922    -211.106781    0.408727    -1.246680    2.257258    -0.756429    -3.766252    1.340024    -2.336123    -2.988043    1.303969    9.619135    24.494474    10.743453    -8.048886    6.173080    11.252536    17.686098    -2.378622    -1.978083    -24.799944    -4.153106    -1.579744    -0.631248    5.014813    1.621841    18.133675    5.289088    1.669534    -13.792367    -1.929637    0.670432    19.416943    7.119277    3.294693    -10.814355    -1.683742    0.714048    6.882671    -2.098617    -8.013699    3.922591    0.970776    -5.840554    -4.632932    12.272633    -22.643780    12.272979    -14.387221    37.994732    0.000000    0.000000    0.000000    -3.984661    2.639492    2.855323    5.436596    8.873805    -0.333492    -6.447240    -18.912903    -7.491687    0.000000    0.000000    0.000000    
-9.081306    82.476250    -211.109238    0.414627    -1.246454    2.255272    -0.775144    -3.761842    1.336316    -2.316074    -2.995971    1.301200    9.596728    24.504192    10.749603    -8.028323    6.155613    11.258632    17.676991    -2.373433    -1.973789    -24.800869    -4.109263    -1.589669    -0.630906    5.008559    1.621792    18.140402    5.280463    1.654031    -13.807078    -1.933531    0.678268    19.428364    7.117805    3.292628    -10.810935    -1.661887    0.710769    6.898797    -2.076919    -7.992078    3.915237    0.964669    -5.827966    -4.629433    12.276899    -22.642128    12.292309    -14.370793    37.987579    0.000000    0.000000    0.000000    -3.989714    2.634511    2.834836    5.431759    8.879580    -0.323885    -6.410141    -18.916313    -7.471502    0.000000    0.000000    0.000000    
-9.079440    82.477173    -211.111191    0.412269    -1.243749    2.252337    -0.771497    -3.761951    1.333846    -2.319556    -3.002433    1.298384    9.597945    24.504761    10.749601    -8.031785    6.166560    11.259275    17.683296    -2.367514    -1.976171    -24.803730    -4.136358    -1.590965    -0.631728    5.032136    1.611770    18.090641    5.305978    1.671235    -13.809343    -1.948897    0.678166    19.437822    7.139985    3.295944    -10.825027    -1.686753    0.714473    6.907659    -2.101957    -7.991548    3.915072    0.960290    -5.829342    -4.631806    12.280692    -22.642590    12.258622    -14.389250    38.002068    0.000000    0.000000    0.000000    -3.987501    2.627693    2.838187    5.427747    8.884227    -0.312916    -6.442379    -18.913929    -7.488934    0.000000    0.000000    0.000000    
-9.080996    82.478340    -211.113358    0.410653    -1.235182    2.249308    -0.778321    -3.769172    1.333357    -2.313733    -3.007198    1.298245    9.596606    24.502649    10.743999    -8.021232    6.173473    11.254529    17.680124    -2.360670    -1.978037    -24.907768    -3.507653    -1.616299    -0.392374    4.732648    1.615448    17.969198    5.017528    1.773123    -13.806741    -1.931036    0.679239    19.434778    7.104273    3.301385    -10.805206    -1.677720    0.722229    6.879039    -2.090354    -7.992782    3.920509    0.953140    -5.824206    -4.634586    12.274487    -22.652819    12.259847    -14.381245    38.001904    0.000000    0.000000    0.000000    -3.984653    2.616222    2.832284    5.427225    8.884919    -0.302535    -6.423673    -18.905081    -7.485097    0.000000    0.000000    0.000000    
-9.080988    82.478561    -211.115143    0.414283    -1.237259    2.247548    -0.787088    -3.766255    1.332296    -2.311643    -3.009779    1.297427    9.608417    24.502634    10.741271    -8.032640    6.179570    11.252054    17.685108    -2.367123    -1.973715    -24.914352    -3.452037    -1.631830    -0.379491    4.718379    1.615984    17.916855    5.001447    1.767958    -13.805001    -1.920038    0.674071    19.436388    7.097837    3.317426    -10.812651    -1.691949    0.719807    6.891100    -2.103947    -7.964708    3.912344    0.954623    -5.805051    -4.624923    12.280128    -22.638617    12.268341    -14.379289    37.976696    0.000000    0.000000    0.000000    -3.986282    2.620590    2.833346    5.423923    8.878428    -0.313686    -6.433003    -18.906076    -7.483416    0.000000    0.000000    0.000000    
-9.081295    82.477570    -211.117599    0.409226    -1.246358    2.251473    -0.786324    -3.778490    1.305454    -2.318170    -2.961789    1.271458    9.620250    24.494362    10.764668    -8.059377    6.152562    11.272415    17.700567    -2.377495    -1.915539    -24.918367    -3.483098    -1.645203    -0.385167    4.738678    1.609594    17.893198    5.020548    1.762475    -13.783134    -1.976389    0.732822    19.436523    7.117676    3.290886    -10.812355    -1.711051    0.719245    6.892833    -2.123828    -7.974254    3.919086    0.961682    -5.821111    -4.626632    12.277526    -22.638306    12.030013    -14.662354    37.997028    0.000000    0.000000    0.000000    -3.983075    2.626829    2.836452    5.429052    8.883270    -0.273058    -6.439280    -18.900290    -7.526966    0.000000    0.000000    0.000000    
-9.081873    82.478584    -211.117676    0.407003    -1.248223    2.248085    -0.791439    -3.781832    1.302429    -2.307099    -2.956909    1.269015    9.592295    24.479050    10.770232    -8.024365    6.176322    11.279256    17.688139    -2.383111    -1.913634    -24.906548    -3.453484    -1.644413    -0.387437    4.718259    1.600126    17.906725    4.999015    1.753836    -13.789166    -1.975496    0.738821    19.439423    7.120434    3.296163    -10.809793    -1.733866    0.722451    6.867264    -2.144184    -7.967989    3.922573    0.966826    -5.817147    -4.624991    12.272716    -22.643177    12.245650    -14.393887    37.974041    0.000000    0.000000    0.000000    -3.977550    2.628050    2.845726    5.424515    8.882628    -0.292605    -6.450259    -18.900417    -7.511996    0.000000    0.000000    0.000000    
-9.080208    82.480682    -211.117676    0.411110    -1.245700    2.246879    -0.793261    -3.788599    1.300775    -2.320167    -2.952505    1.267263    9.611635    24.479572    10.767070    -8.037619    6.173172    11.276191    17.698137    -2.392727    -1.920755    -24.908171    -3.455927    -1.630685    -0.385259    4.714553    1.581361    17.872795    4.993078    1.743632    -13.786712    -1.996093    0.767481    19.461285    7.135778    3.250092    -10.809910    -1.755769    0.738883    6.843918    -2.163666    -7.981013    3.916723    0.963523    -5.803735    -4.622912    12.271957    -22.673813    12.246241    -14.375459    37.996853    0.000000    0.000000    0.000000    -3.978853    2.627001    2.833560    5.417844    8.878400    -0.305589    -6.431982    -18.895773    -7.492157    0.000000    0.000000    0.000000    
-9.080585    82.480392    -211.118698    0.407170    -1.244180    2.242329    -0.795491    -3.788841    1.301658    -2.314278    -2.959069    1.268240    9.606642    24.488646    10.767880    -8.029643    6.157136    11.277074    17.697660    -2.398259    -1.922094    -24.914198    -3.407839    -1.629862    -0.370174    4.680051    1.563908    17.863373    4.959682    1.753274    -13.791728    -1.998418    0.768035    19.469629    7.133129    3.249591    -10.809443    -1.759359    0.740590    6.869532    -2.168291    -7.971208    3.921731    0.961966    -5.810092    -4.629094    12.271560    -22.655050    12.029669    -14.652883    38.011375    0.000000    0.000000    0.000000    -3.975105    2.623435    2.843012    5.419003    8.880961    -0.273850    -6.458457    -18.892435    -7.529672    0.000000    0.000000    0.000000    
-9.080892    82.480408    -211.119263    0.405594    -1.247547    2.244670    -0.796598    -3.784229    1.296633    -2.314612    -2.964811    1.263087    9.615286    24.489048    10.766869    -8.045897    6.163168    11.275760    17.698324    -2.386787    -1.920392    -24.907604    -3.428907    -1.642135    -0.381271    4.673382    1.570224    17.853527    4.951088    1.740786    -13.792514    -1.992041    0.775855    19.472525    7.110865    3.251120    -10.796844    -1.761903    0.745414    6.846853    -2.168589    -7.966062    3.924772    0.965785    -5.807481    -4.627137    12.269698    -22.677689    12.262609    -14.369418    38.000694    0.000000    0.000000    0.000000    -3.971848    2.627593    2.846870    5.422292    8.879771    -0.310114    -6.431764    -18.895222    -7.514953    0.000000    0.000000    0.000000    
-9.080548    82.481270    -211.121536    0.404525    -1.234769    2.244894    -0.795855    -3.797054    1.294385    -2.322562    -2.971039    1.260571    9.607223    24.508556    10.767015    -8.022946    6.128732    11.276700    17.701586    -2.389956    -1.920547    -24.908081    -3.401436    -1.645099    -0.369667    4.645710    1.563516    17.834776    4.922925    1.740531    -13.775146    -1.971109    0.772466    19.460443    7.103673    3.268364    -10.794217    -1.774628    0.742901    6.859669    -2.182556    -7.968490    3.921883    0.955883    -5.799774    -4.617466    12.262489    -22.683531    12.255456    -14.369874    37.998730    0.000000    0.000000    0.000000    -3.971185    2.613730    2.826637    5.413536    8.883365    -0.258516    -6.415996    -18.893772    -7.534850    0.000000    0.000000    0.000000    
